<svg width="420" height="382" viewBox="0 0 420 382" fill="none" xmlns="http://www.w3.org/2000/svg">
<path d="M417.947 272.713C417.863 273.048 417.778 273.386 417.778 273.722C410.96 309.08 382.503 335.012 350.764 349.996C350.09 350.334 349.417 350.67 348.743 350.923C345.628 352.355 342.514 353.618 339.399 354.88C337.378 355.636 335.357 356.395 333.339 357.068C333.085 357.153 332.832 357.237 332.496 357.322C312.291 364.14 291.411 369.865 270.112 373.991C258.832 376.179 247.465 377.946 236.015 379.127C227.175 380.052 218.336 380.725 209.581 381.061C198.552 381.483 187.525 381.314 176.58 380.556C171.359 380.221 166.139 379.716 161.004 379.127C125.477 375.001 90.9614 364.225 65.2832 337.537C36.6593 307.735 27.0617 275.238 30.8501 243.497C32.533 229.356 36.826 215.381 43.309 201.91C48.4446 191.05 55.012 180.525 62.6732 170.423C62.8421 170.169 63.0933 169.918 63.2623 169.665C64.0205 168.737 64.6918 167.73 65.4499 166.803C65.7034 166.465 65.9546 166.214 66.1236 165.876C72.4375 157.962 79.3428 150.387 86.9196 143.231C87.8467 142.388 88.7692 141.463 89.6963 140.62C89.7808 140.536 89.8653 140.452 89.9498 140.452C90.2878 140.198 90.5367 139.862 90.8746 139.609L90.9591 139.527C91.8862 138.684 92.811 137.844 93.7381 137.001C94.1583 136.581 94.5808 136.159 95.0854 135.821C101.904 129.76 108.892 123.951 116.133 118.48C126.909 110.229 138.02 102.568 149.554 95.4959C156.206 91.3696 163.025 87.4123 169.843 83.6239C171.275 82.7813 172.789 82.0255 174.305 81.1828C180.535 77.8147 186.766 74.6155 193.165 71.5852C194.512 70.9116 195.857 70.3224 197.204 69.6488C221.031 58.1993 247.382 46.8342 273.901 45.0668C274.574 45.0668 275.164 44.9823 275.837 44.9823C287.96 44.3931 300.084 45.9094 312.038 50.3714C346.809 63.3372 369.624 100.127 386.375 131.276C407.93 172.108 426.282 226.241 417.947 272.713Z" fill="#2C445C" fill-opacity="0.08"/>
<path d="M417.694 273.807C410.875 309.165 382.418 335.096 350.68 350.081C346.891 351.848 343.103 353.449 339.314 354.963C337.294 355.721 335.275 356.479 333.254 357.153C312.796 364.14 291.58 369.95 270.028 374.158C258.747 376.348 247.382 378.115 235.933 379.294C227.093 380.221 218.251 380.894 209.496 381.23C198.467 381.65 187.44 381.484 176.495 380.725C171.275 380.387 166.055 379.883 160.919 379.294C160.919 378.453 161.088 377.695 161.173 376.853L190.555 363.298C217.411 330.97 251.927 306.219 286.698 282.477C290.233 280.036 293.77 277.68 297.305 275.238C310.437 266.314 323.992 257.221 339.399 253.518C366.507 247.035 393.87 258.064 417.694 273.807Z" fill="#1D3D53" fill-opacity="0.08"/>
<path d="M233.878 0.297363C234.636 2.56947 232.784 2.74072 231.522 3.07641C225.881 4.75936 220.41 6.86475 214.685 8.46323C195.49 14.1035 176.21 19.7461 157.015 25.3019C155.079 25.891 153.142 26.8158 151.29 25.0484C145.901 20.4174 140.514 15.7887 135.043 11.1578C134.538 10.7376 133.862 10.3152 133.947 9.72601C134.2 8.79889 135.125 9.13686 135.799 9.13686C145.143 8.29425 154.489 7.36941 163.749 6.61128C172.337 5.85317 181.008 5.43299 189.512 4.50589C197.678 3.57879 230.259 1.13999 233.878 0.297363Z" fill="#CECECE"/>
<path d="M151.29 25.1327C152.468 24.9637 153.649 24.8815 154.743 24.5435C180.083 17.2203 233.542 2.23356 233.88 0.297139C235.312 0.21266 236.826 -0.20752 238.342 0.128164C235.481 3.1584 231.775 4.84363 227.987 6.27539C226.977 6.69556 226.05 7.20021 225.208 7.78937C218.978 9.47232 213.589 13.094 207.444 15.0304C203.318 16.5466 199.278 18.3963 195.405 20.5862C186.397 23.8699 177.726 27.9962 168.971 31.7845C167.96 32.2047 166.866 32.1202 166.023 32.8784C164.929 33.721 163.667 34.1411 162.404 34.4768C160.721 36.4132 159.794 38.8566 158.7 41.1287C157.606 43.3186 156.595 45.5062 155.078 47.4426C154.994 48.1163 154.489 48.2008 153.9 48.2008C153.142 41.4666 152.471 34.7303 151.712 27.9962C151.712 26.9869 151.459 26.0598 151.29 25.1327Z" fill="#A8A8A8"/>
<path d="M160.972 33.5522C163.329 35.6576 165.603 37.7608 167.96 39.7817C168.129 40.4553 168.044 41.6336 168.044 41.6336L153.985 48.201C153.985 48.1165 159.963 35.5732 160.972 33.5522Z" fill="#8B8B8B"/>
<path d="M160.972 33.5522C161.392 37.0871 181.599 52.325 182.357 52.663C183.705 53.0832 184.545 52.4095 185.219 51.3157C185.303 51.0623 185.472 50.8111 185.557 50.5576C188.336 47.863 236.321 4.17023 238.342 0.128418C233.796 2.23381 162.404 33.0476 160.972 33.5522Z" fill="#CECECE"/>
<path d="M348.659 351.008C345.544 352.439 342.43 353.702 339.315 354.965C337.294 355.721 335.273 356.479 333.254 357.153C333.001 357.237 332.748 357.322 332.412 357.406L334.937 326.846L337.21 299.147L339.061 277.175L341.42 295.612L345.46 326.93L348.659 351.008Z" fill="#6D573E"/>
<path d="M347.145 166.803C363.812 211.17 365.918 261.094 364.066 285.676C362.129 311.692 350.764 329.96 338.977 328.193C328.623 326.677 316.836 312.617 317.847 267.493C318.857 222.368 327.612 182.464 333.421 166.888C338.977 151.901 341.925 152.913 347.145 166.803Z" fill="#5083B5"/>
<path d="M351.522 179.684C364.15 220.516 365.664 263.45 364.065 285.594C362.129 311.607 350.764 329.875 338.976 328.108C329.379 326.676 318.687 314.638 317.845 277.51C339.399 335.938 362.972 271.196 351.522 179.684Z" fill="#3E698C"/>
<path d="M350.68 350.081C346.891 351.848 343.103 353.449 339.315 354.963C337.294 355.721 335.273 356.479 333.254 357.153C312.796 364.141 291.58 369.95 270.028 374.158C266.744 374.832 263.461 375.421 260.177 375.926C253.105 377.106 245.951 378.116 238.794 378.958C237.867 379.043 236.858 379.21 235.931 379.294C231.384 379.799 226.84 380.221 222.209 380.557C218 380.895 213.705 381.061 209.497 381.23C198.467 381.651 187.44 381.484 176.495 380.726C171.275 380.388 166.055 379.883 160.919 379.294C125.392 375.17 90.8747 364.394 65.1966 337.704C36.5727 307.902 26.9751 275.405 30.7634 243.667C39.4339 237.689 48.109 231.797 56.7795 225.903C74.1228 214.118 91.9685 202.162 112.258 197.195C150.564 187.935 189.208 205.192 222.209 228.175C227.68 231.964 232.985 235.921 238.036 239.963C238.29 240.132 238.541 240.383 238.794 240.552C246.035 246.277 253.105 252.171 260.093 258.231L260.177 258.316C269.186 266.146 278.025 274.227 286.613 282.478C309.008 303.945 330.222 326.762 350.68 350.081Z" fill="url(#paint0_linear_1311_4408)" fill-opacity="0.08"/>
<path d="M260.177 270.103V375.928C253.107 377.107 245.951 378.116 238.794 378.959C237.867 379.043 236.86 379.21 235.933 379.294C231.386 379.801 226.84 380.221 222.209 380.557V208.225H238.794L259.757 211.424L260.095 258.316L260.177 270.103Z" fill="#4F3F2D"/>
<g opacity="0.3">
<path d="M260.177 208.225V375.928C253.105 377.107 245.951 378.116 238.794 378.959V208.225H260.177Z" fill="#D9A585"/>
</g>
<path d="M346.556 127.15V214.707C346.556 223.126 339.988 229.945 331.907 229.945H86.9197V127.15C86.9197 95.496 111.586 69.9023 142.062 69.9023H291.411C295.537 69.9023 299.579 70.407 303.452 71.2496C326.182 76.4697 343.61 96.2518 346.218 120.667C346.471 122.773 346.556 124.96 346.556 127.15Z" fill="#7BBEE3"/>
<path d="M197.204 226.997H86.9197V124.289C86.9197 95.834 109.988 72.8481 138.358 72.8481H145.766C174.221 72.8481 197.204 95.9185 197.204 124.289V226.997Z" fill="#6BB4DD"/>
<path d="M194.259 127.993V224.051H89.8655V127.993C89.8655 109.051 99.9678 92.4661 115.121 83.2886C123.034 78.4886 132.211 75.7964 142.062 75.7964C170.855 75.7964 194.259 99.2001 194.259 127.993Z" fill="#5A83BE"/>
<g opacity="0.3">
<path d="M194.258 127.993V224.051H170.852C170.937 220.852 171.106 217.738 171.275 214.623C182.135 65.6942 114.867 83.7933 114.867 83.7933L115.121 83.3731C123.036 78.5732 132.213 75.8786 142.062 75.8786C170.855 75.7942 194.258 99.2002 194.258 127.993Z" fill="#3C6299"/>
</g>
<path d="M331.907 224.051H86.9197V230.027H331.907C339.988 230.027 346.556 223.209 346.556 214.789V208.813C346.556 217.233 339.988 224.051 331.907 224.051Z" fill="#5C9BC6"/>
<g opacity="0.3">
<path d="M346.218 120.667C343.103 92.1278 319.784 69.9023 291.411 69.9023H276.596C304.966 69.9023 328.288 92.1278 331.402 120.667C331.654 122.773 331.738 124.962 331.738 127.235V162.51H196.869V223.8H328.877C326.182 227.588 321.889 230.029 317.089 230.029H331.907C336.789 230.029 341.084 227.588 343.692 223.8H346.556V214.791V168.824V127.235C346.556 124.962 346.471 122.773 346.218 120.667Z" fill="#54A0CC"/>
</g>
<g opacity="0.5">
<path d="M235.703 143.815C236.954 136.058 231.681 128.755 223.924 127.504C216.167 126.253 208.862 131.525 207.611 139.282C206.359 147.04 211.634 154.342 219.391 155.594C227.148 156.845 234.451 151.572 235.703 143.815Z" fill="#354E7E"/>
</g>
<path d="M221.705 147.019C224.728 147.019 227.176 144.571 227.176 141.547C227.176 138.524 224.728 136.074 221.705 136.074C218.681 136.074 216.231 138.524 216.231 141.547C216.231 144.571 218.681 147.019 221.705 147.019Z" fill="#DFAF51"/>
<path d="M95.0856 305.799C83.8895 305.799 74.1229 299.989 68.9028 290.307C63.6827 280.625 64.3563 269.513 70.6702 260.42L87.1709 229.018L191.902 229.607L163.109 270.607C147.787 292.664 122.278 305.799 95.0856 305.799Z" fill="#5C9BC6"/>
<mask id="mask0_1311_4408" style="mask-type:alpha" maskUnits="userSpaceOnUse" x="0" y="71" width="199" height="216">
<path d="M22.2643 81.7167L129.59 71.4409C129.59 71.4409 109.323 79.4332 96.4786 91.7071C98.7621 95.9887 100.76 97.1305 100.76 97.1305C100.76 97.1305 117.601 73.7244 145.86 76.008C168.14 77.8074 188.961 99.414 192.101 110.261C195.241 121.107 192.101 222.438 192.101 222.438L198.095 286.948L39.9616 286.091L0 211.592L3.42528 151.079L12.5593 106.265L22.2643 81.7167Z" fill="#FF0000"/>
</mask>
<g mask="url(#mask0_1311_4408)">
<path d="M179.63 133.977L190.49 181.291C190.828 182.638 190.828 183.983 190.49 185.246V185.331C190.406 185.5 190.406 185.666 190.321 185.92C190.237 186.34 190.07 186.762 189.901 187.098C189.817 187.267 189.732 187.52 189.648 187.689C189.563 187.858 189.481 188.025 189.312 188.194C189.228 188.363 189.059 188.53 188.974 188.699C188.89 188.868 188.807 188.95 188.638 189.119C188.134 189.708 187.545 190.3 186.871 190.804C186.702 190.973 186.451 191.14 186.197 191.224C185.944 191.393 185.69 191.476 185.355 191.645C185.186 191.729 184.934 191.813 184.766 191.898C184.597 191.982 184.514 191.982 184.345 192.067C184.092 192.151 183.925 192.234 183.672 192.234L76.4994 216.987C71.5327 218.165 66.6483 215.051 65.47 210.084L54.6096 162.769C54.5251 162.6 54.5274 162.349 54.5274 162.18C54.4429 161.76 54.4429 161.253 54.4429 160.833C54.4429 160.749 54.4429 160.664 54.4429 160.664C54.4429 160.075 54.5251 159.486 54.6096 158.981C54.6941 158.812 54.6941 158.561 54.7786 158.392C54.863 158.223 54.863 157.969 54.9475 157.801C55.1165 157.38 55.2832 157.045 55.4522 156.707C55.7057 156.118 56.1258 155.528 56.546 155.024C57.8088 153.507 59.4917 152.414 61.5971 151.909L168.769 127.242C170.706 126.822 172.727 126.989 174.41 127.747C175.842 128.336 177.107 129.346 178.116 130.608C178.454 131.029 178.703 131.536 178.956 132.04C178.956 132.125 179.041 132.209 179.041 132.209C179.294 132.629 179.376 133.052 179.545 133.472C179.545 133.641 179.545 133.808 179.63 133.977Z" fill="#A8A8A8"/>
<path d="M179.125 132.629L129.37 179.775L128.612 180.448L123.898 184.91L119.603 183.563L119.098 183.394L56.1258 163.525L54.6941 163.105L54.6096 162.854C54.5251 162.685 54.5274 162.432 54.5274 162.263C54.4429 161.842 54.4429 161.335 54.4429 160.915C54.4429 160.831 54.4429 160.749 54.4429 160.749C54.4429 160.159 54.5251 159.568 54.6096 159.063C54.6941 158.894 54.6941 158.643 54.7786 158.474C54.863 158.305 54.863 158.054 54.9475 157.885C55.1165 157.465 55.2832 157.129 55.4522 156.791C55.7057 156.202 56.1258 155.613 56.546 155.108C57.4731 154.435 58.5669 153.93 59.8297 153.677L168.18 128.672C171.295 127.914 174.494 128.926 176.6 130.946C176.938 131.367 177.189 131.871 177.442 132.376C177.611 132.714 178.703 131.618 178.872 131.871C178.872 131.956 179.125 132.46 179.125 132.629Z" fill="#8B8B8B"/>
<path d="M178.956 132.125L177.862 133.218L129.118 179.439L128.36 180.113L125.161 183.143L119.941 181.542L119.772 181.458L55.6211 161.253L55.3676 161.169L54.6962 160.918C54.6117 160.918 54.5273 160.833 54.4428 160.833H54.3583C53.9381 160.58 53.6846 160.075 53.7691 159.57V159.486C53.7691 159.317 53.8536 159.066 53.8536 158.897C53.8536 158.812 53.8536 158.812 53.8536 158.728C53.9381 158.559 53.9381 158.307 54.0226 158.138C54.1071 157.885 54.1893 157.718 54.1893 157.549C54.2738 157.296 54.3583 157.129 54.4428 156.96C54.5273 156.791 54.6117 156.625 54.6962 156.54C54.8652 156.287 54.9474 156.035 55.1164 155.782C55.2854 155.613 55.3676 155.362 55.5366 155.193C55.7055 155.024 55.79 154.857 55.959 154.688C56.128 154.519 56.2947 154.35 56.4637 154.181C56.6327 154.012 56.7993 153.845 56.9683 153.676C57.0528 153.592 57.2195 153.508 57.304 153.423C57.3885 153.339 57.473 153.256 57.642 153.172C57.8109 153.087 57.8932 153.003 58.0621 152.918C58.0621 152.918 58.0621 152.921 58.1466 152.836C58.3156 152.752 58.3978 152.667 58.5668 152.583C58.7358 152.498 58.9048 152.414 58.9892 152.329C59.0737 152.245 59.2404 152.247 59.3249 152.163C59.5784 152.078 59.7451 151.994 59.9986 151.909C60.252 151.825 60.5032 151.74 60.7567 151.74L169.107 126.736C169.276 126.651 169.527 126.653 169.696 126.653C169.781 126.653 169.948 126.653 170.032 126.569C170.286 126.484 170.537 126.484 170.79 126.484C171.044 126.484 171.21 126.484 171.464 126.484C172.053 126.484 172.642 126.569 173.231 126.653C173.569 126.738 173.905 126.82 174.158 126.905C174.748 127.074 175.421 127.409 175.926 127.747C176.179 127.916 176.515 128.083 176.769 128.336C177.947 129.263 178.956 132.125 178.956 132.125Z" fill="#CECECE"/>
<path d="M129.876 182.805C130.55 185.751 128.696 188.699 125.75 189.372C122.804 190.046 119.856 188.192 119.183 185.246C118.509 182.3 120.363 179.354 123.309 178.681C126.255 178.007 129.203 179.859 129.876 182.805Z" fill="#A7A7A7"/>
<g opacity="0.5">
<path d="M130.212 182.216C130.886 185.161 129.032 188.11 126.086 188.783C123.14 189.457 120.194 187.605 119.521 184.659C118.847 181.713 120.699 178.765 123.645 178.092C126.59 177.503 129.538 179.355 130.212 182.216Z" fill="#354E7E"/>
</g>
</g>
<path d="M295.007 139.732L343.151 138.625L316.968 193.879L295.007 139.732Z" fill="#DB6158"/>
<path d="M219.773 141.966C219.727 139.945 221.29 138.308 223.311 138.262L339.797 135.585C341.817 135.539 343.452 137.102 343.498 139.123C343.545 141.143 341.983 142.778 339.963 142.824L223.393 145.503C221.455 145.463 219.818 143.901 219.773 141.966Z" fill="#6D573E"/>
<path d="M376.609 183.904C377.744 183.904 378.664 182.984 378.664 181.849C378.664 180.714 377.744 179.794 376.609 179.794C375.474 179.794 374.554 180.714 374.554 181.849C374.554 182.984 375.474 183.904 376.609 183.904Z" fill="white"/>
<path d="M359.483 111.745C360.113 111.745 360.624 111.233 360.624 110.603C360.624 109.973 360.113 109.461 359.483 109.461C358.852 109.461 358.341 109.973 358.341 110.603C358.341 111.233 358.852 111.745 359.483 111.745Z" fill="white"/>
<path d="M288.694 61.2798C289.829 61.2798 290.749 60.3595 290.749 59.2246C290.749 58.0897 289.829 57.1694 288.694 57.1694C287.559 57.1694 286.638 58.0897 286.638 59.2246C286.638 60.3595 287.559 61.2798 288.694 61.2798Z" fill="white"/>
<path d="M288.009 246.701C288.639 246.701 289.15 246.189 289.15 245.559C289.15 244.929 288.639 244.417 288.009 244.417C287.378 244.417 286.867 244.929 286.867 245.559C286.867 246.189 287.378 246.701 288.009 246.701Z" fill="white"/>
<path d="M47.3258 218.157C47.9561 218.157 48.4676 217.646 48.4676 217.015C48.4676 216.385 47.9561 215.874 47.3258 215.874C46.6956 215.874 46.1841 216.385 46.1841 217.015C46.1841 217.646 46.6956 218.157 47.3258 218.157Z" fill="white"/>
<path d="M406.751 239.851C407.507 239.851 408.122 239.239 408.122 238.48C408.122 237.725 407.507 237.11 406.751 237.11C405.996 237.11 405.381 237.725 405.381 238.48C405.381 239.239 405.996 239.851 406.751 239.851Z" fill="white"/>
<defs>
<linearGradient id="paint0_linear_1311_4408" x1="28.8293" y1="472.119" x2="349.533" y2="472.119" gradientUnits="userSpaceOnUse">
<stop stop-color="#1A3145"/>
<stop offset="0.5" stop-color="#1A3145"/>
<stop offset="1" stop-color="#1A3145"/>
</linearGradient>
</defs>
</svg>
