<svg width="100" height="79" viewBox="0 0 100 79" fill="none" xmlns="http://www.w3.org/2000/svg">
<path d="M9.85533 67.5081C9.76888 66.7781 9.41828 66.2113 8.80352 65.8079C8.18876 65.4045 7.43472 65.2028 6.5414 65.2028C5.88822 65.2028 5.31669 65.3084 4.82681 65.5197C4.34172 65.7311 3.9623 66.0216 3.68854 66.3914C3.41959 66.7613 3.28511 67.1815 3.28511 67.6522C3.28511 68.046 3.37876 68.3846 3.56607 68.668C3.75818 68.9465 4.00313 69.1795 4.3009 69.3668C4.59867 69.5493 4.91085 69.7006 5.23744 69.8206C5.56403 69.9359 5.86421 70.0296 6.13797 70.1016L7.63644 70.505C8.02066 70.6059 8.44811 70.7452 8.91878 70.9229C9.39426 71.1006 9.84813 71.3431 10.2804 71.6505C10.7174 71.9531 11.0776 72.3421 11.361 72.8176C11.6444 73.2931 11.7861 73.8766 11.7861 74.5682C11.7861 75.3655 11.5771 76.0859 11.1593 76.7295C10.7462 77.373 10.1411 77.8845 9.34383 78.264C8.55137 78.6434 7.58841 78.8331 6.45495 78.8331C5.39834 78.8331 4.48341 78.6626 3.71016 78.3216C2.94171 77.9806 2.33656 77.5051 1.8947 76.8952C1.45765 76.2852 1.2103 75.5768 1.15267 74.7699H2.99694C3.04497 75.327 3.23228 75.7881 3.55887 76.1531C3.89026 76.5133 4.3081 76.7823 4.8124 76.96C5.32149 77.1329 5.86901 77.2193 6.45495 77.2193C7.13695 77.2193 7.74931 77.1089 8.29202 76.888C8.83474 76.6622 9.26459 76.35 9.58157 75.9514C9.89855 75.548 10.057 75.0773 10.057 74.5394C10.057 74.0495 9.92017 73.6509 9.64641 73.3435C9.37265 73.0361 9.01244 72.7864 8.56578 72.5943C8.11912 72.4021 7.63644 72.234 7.11774 72.09L5.30228 71.5713C4.14961 71.2399 3.23708 70.7668 2.56469 70.152C1.8923 69.5373 1.5561 68.7328 1.5561 67.7386C1.5561 66.9126 1.77943 66.1921 2.22609 65.5774C2.67756 64.9578 3.28271 64.4775 4.04155 64.1365C4.80519 63.7907 5.65769 63.6178 6.59904 63.6178C7.54999 63.6178 8.39528 63.7883 9.13491 64.1293C9.87454 64.4655 10.4605 64.9266 10.8927 65.5125C11.3298 66.0985 11.5603 66.7637 11.5843 67.5081H9.85533ZM13.9167 65.4045V63.8196H24.9823V65.4045H20.3428V78.5737H18.5562V65.4045H13.9167ZM39.5744 71.1966C39.5744 72.7527 39.2934 74.0975 38.7315 75.231C38.1696 76.3644 37.3987 77.2386 36.419 77.8533C35.4392 78.4681 34.3201 78.7754 33.0618 78.7754C31.8035 78.7754 30.6844 78.4681 29.7047 77.8533C28.7249 77.2386 27.954 76.3644 27.3921 75.231C26.8302 74.0975 26.5492 72.7527 26.5492 71.1966C26.5492 69.6405 26.8302 68.2958 27.3921 67.1623C27.954 66.0288 28.7249 65.1547 29.7047 64.54C30.6844 63.9252 31.8035 63.6178 33.0618 63.6178C34.3201 63.6178 35.4392 63.9252 36.419 64.54C37.3987 65.1547 38.1696 66.0288 38.7315 67.1623C39.2934 68.2958 39.5744 69.6405 39.5744 71.1966ZM37.8454 71.1966C37.8454 69.9191 37.6317 68.8409 37.2042 67.962C36.7816 67.0831 36.2076 66.4179 35.4824 65.9664C34.762 65.5149 33.9551 65.2892 33.0618 65.2892C32.1685 65.2892 31.3592 65.5149 30.634 65.9664C29.9136 66.4179 29.3397 67.0831 28.9122 67.962C28.4896 68.8409 28.2782 69.9191 28.2782 71.1966C28.2782 72.4742 28.4896 73.5524 28.9122 74.4313C29.3397 75.3102 29.9136 75.9754 30.634 76.4269C31.3592 76.8783 32.1685 77.1041 33.0618 77.1041C33.9551 77.1041 34.762 76.8783 35.4824 76.4269C36.2076 75.9754 36.7816 75.3102 37.2042 74.4313C37.6317 73.5524 37.8454 72.4742 37.8454 71.1966ZM42.5786 78.5737V63.8196H47.5638C48.7213 63.8196 49.6675 64.0285 50.4023 64.4463C51.1419 64.8594 51.6894 65.4189 52.0449 66.1249C52.4003 66.8309 52.578 67.6186 52.578 68.4879C52.578 69.3572 52.4003 70.1472 52.0449 70.858C51.6943 71.5689 51.1515 72.1356 50.4167 72.5582C49.6819 72.9761 48.7405 73.185 47.5927 73.185H44.0194V71.6001H47.535C48.3275 71.6001 48.9639 71.4632 49.4441 71.1894C49.9244 70.9157 50.2726 70.5459 50.4887 70.08C50.7097 69.6093 50.8201 69.0786 50.8201 68.4879C50.8201 67.8971 50.7097 67.3688 50.4887 66.9029C50.2726 66.4371 49.922 66.0721 49.4369 65.8079C48.9519 65.539 48.3083 65.4045 47.5062 65.4045H44.3652V78.5737H42.5786ZM55.456 78.5737V63.8196H60.4413C61.594 63.8196 62.5402 64.0165 63.2798 64.4103C64.0194 64.7993 64.5669 65.3348 64.9223 66.0168C65.2777 66.6988 65.4555 67.4745 65.4555 68.3438C65.4555 69.2131 65.2777 69.9839 64.9223 70.6563C64.5669 71.3287 64.0218 71.857 63.287 72.2412C62.5522 72.6207 61.6132 72.8104 60.4702 72.8104H56.4358V71.1966H60.4125C61.2002 71.1966 61.8341 71.0814 62.3144 70.8508C62.7995 70.6203 63.1501 70.2937 63.3662 69.8711C63.5872 69.4436 63.6976 68.9345 63.6976 68.3438C63.6976 67.753 63.5872 67.2367 63.3662 66.7949C63.1453 66.353 62.7923 66.012 62.3072 65.7719C61.8221 65.5269 61.181 65.4045 60.3837 65.4045H57.2427V78.5737H55.456ZM62.4009 71.9459L66.0318 78.5737H63.957L60.3837 71.9459H62.4009ZM68.4326 78.5737V63.8196H77.337V65.4045H70.2192V70.3898H76.8759V71.9747H70.2192V76.9888H77.4522V78.5737H68.4326ZM90.6431 68.4302C90.4846 67.9452 90.2757 67.5105 90.0163 67.1263C89.7618 66.7372 89.4568 66.4059 89.1014 66.1321C88.7508 65.8583 88.3522 65.6494 87.9055 65.5053C87.4588 65.3612 86.969 65.2892 86.4358 65.2892C85.5617 65.2892 84.7669 65.5149 84.0513 65.9664C83.3356 66.4179 82.7665 67.0831 82.3439 67.962C81.9212 68.8409 81.7099 69.9191 81.7099 71.1966C81.7099 72.4742 81.9236 73.5524 82.3511 74.4313C82.7785 75.3102 83.3573 75.9754 84.0873 76.4269C84.8173 76.8783 85.6386 77.1041 86.5511 77.1041C87.3964 77.1041 88.1408 76.924 88.7844 76.5638C89.4328 76.1987 89.9371 75.6849 90.2973 75.0221C90.6623 74.3545 90.8448 73.5692 90.8448 72.6663L91.3923 72.7816H86.9545V71.1966H92.5738V72.7816C92.5738 73.9967 92.3145 75.0533 91.7958 75.9514C91.2819 76.8495 90.5711 77.5459 89.6633 78.0406C88.7604 78.5305 87.723 78.7754 86.5511 78.7754C85.2448 78.7754 84.0969 78.4681 83.1075 77.8533C82.1229 77.2386 81.3545 76.3644 80.8022 75.231C80.2547 74.0975 79.9809 72.7527 79.9809 71.1966C79.9809 70.0296 80.137 68.9802 80.4492 68.0484C80.7662 67.1119 81.2128 66.3146 81.7891 65.6566C82.3655 64.9986 83.0475 64.4943 83.8351 64.1437C84.6228 63.7931 85.4897 63.6178 86.4358 63.6178C87.2139 63.6178 87.9391 63.7355 88.6115 63.9708C89.2887 64.2014 89.8915 64.5304 90.4198 64.9578C90.9529 65.3805 91.3971 65.8872 91.7525 66.4779C92.1079 67.0638 92.3529 67.7146 92.4874 68.4302H90.6431Z" fill="#FDFDFD"/>
<path fill-rule="evenodd" clip-rule="evenodd" d="M21.0152 23.5014L21.0134 48.2429C21.0134 52.9308 23.6062 55.4018 28.3509 55.4018L71.8694 55.403C76.3171 55.4028 78.9865 52.8335 78.9865 48.4639L78.9843 23.5014C78.9759 18.8004 75.188 16.3846 71.37 13.3766C70.8175 12.9412 71.5368 13.1602 70.603 12.957C70.7762 18.2415 69.8772 18.22 72.2918 19.9239C71.2697 21.0179 57.7756 31.6601 55.8031 33.2746C55.0027 33.9294 50.6788 37.2596 50.3081 37.8302C49.4756 37.3904 48.3156 36.3638 47.4858 35.7208L27.7359 19.8893C29.6199 18.088 29.3093 20.211 29.374 14.2235L29.402 12.9175C28.668 13.1582 24.7447 16.4533 24.1412 17.0817C22.4747 18.8165 21.0129 19.7978 21.0152 23.5014Z" fill="#FDFDFD"/>
<path fill-rule="evenodd" clip-rule="evenodd" d="M29.2488 50.8715L70.7881 50.8591L57.6857 37.7098L54.141 40.4657C53.3097 41.1275 51.4348 42.9651 50.2177 42.992C48.4785 43.0304 44.2268 38.5419 42.489 37.6392C40.2205 39.8143 38.1152 42.0206 35.859 44.264C33.6372 46.4727 31.3533 48.6464 29.2488 50.8715Z" fill="#1452CA"/>
<path fill-rule="evenodd" clip-rule="evenodd" d="M31.6348 3.62008V18.6416C31.6348 20.7367 31.8574 20.4325 33.097 21.4116L35.7108 23.3655L35.6695 3.97346L64.3395 3.97593L64.3524 23.4431C65.0364 22.983 65.8492 22.3308 66.443 21.8391C66.9632 21.4081 66.9768 21.4167 67.4587 21.0799C69.1599 19.8923 68.3649 16.7187 68.3649 12.4561C68.3649 9.95255 68.3644 7.44897 68.3649 4.94539C68.3656 1.85143 69.0237 0 65.4632 0H34.5365C31.6076 0 31.6348 0.948203 31.6348 3.62008Z" fill="#FDFDFD"/>
<path fill-rule="evenodd" clip-rule="evenodd" d="M25.5341 48.0702L38.9075 34.82C38.5205 34.2455 36.2858 32.6567 35.6245 32.1351C34.3938 31.1649 33.4293 30.3687 32.3232 29.4778L25.5986 24.2754L25.5341 48.0702Z" fill="#1452CA"/>
<path fill-rule="evenodd" clip-rule="evenodd" d="M61.2977 34.7679L74.4547 48.047L74.4532 24.292L61.2977 34.7679Z" fill="#1452CA"/>
<path fill-rule="evenodd" clip-rule="evenodd" d="M49.1546 8.37013C43.5766 8.81767 38.8852 13.6311 39.4848 19.8931C40.0124 25.4042 44.8325 30.0807 51.0574 29.4209C56.4998 28.8444 61.1553 24.0668 60.5051 17.8376C59.932 12.35 55.2437 7.88132 49.1546 8.37013Z" fill="#FDFDFD"/>
<path fill-rule="evenodd" clip-rule="evenodd" d="M43.8553 22.3915C44.9488 21.8241 52.0348 14.3981 53.4913 12.9453C50.0581 9.54519 40.1631 13.8238 43.8553 22.3915Z" fill="#1452CA"/>
<path fill-rule="evenodd" clip-rule="evenodd" d="M46.4503 24.988C48.7994 25.8052 51.179 26.7596 54.1536 24.5461C54.4341 24.3373 54.3876 24.3544 54.5117 24.2429C57.1845 21.8392 57.6632 19.0697 56.1125 15.377L46.4503 24.988Z" fill="#1452CA"/>
</svg>
