<svg width="28" height="28" viewBox="0 0 28 28" fill="none" xmlns="http://www.w3.org/2000/svg">
<g clip-path="url(#clip0_1189_2361)">
<path d="M19.6875 11.375C15.575 11.375 12.25 14.7 12.25 18.8125C12.25 22.925 15.575 26.25 19.6875 26.25C23.8 26.25 27.125 22.925 27.125 18.8125C27.125 14.7 23.8 11.375 19.6875 11.375ZM25.375 18.375H22.75C22.75 16.625 22.4875 14.875 21.9625 13.5625C23.8 14.4375 25.2 16.1875 25.375 18.375ZM19.6875 24.5C19.3375 24.325 18.55 22.925 18.375 20.125H20.9125C20.7375 22.925 20.0375 24.325 19.6875 24.5ZM18.375 18.375C18.4625 15.05 19.3375 13.3 19.6 13.125C19.95 13.3 20.825 15.05 20.9125 18.375H18.375ZM17.4125 13.5625C16.8875 14.875 16.7125 16.625 16.625 18.375H14C14.175 16.1875 15.575 14.4375 17.4125 13.5625ZM14.175 20.125H16.625C16.7125 21.525 16.975 22.925 17.4125 24.0625C15.8375 23.3625 14.6125 21.875 14.175 20.125ZM21.9625 24.0625C22.4 22.925 22.6625 21.6125 22.75 20.125H25.2875C24.7625 21.875 23.5375 23.3625 21.9625 24.0625Z" fill="#FDFDFD"/>
<path d="M22.575 8.75C21.7875 4.725 18.2 1.75 14 1.75C9.8 1.75 6.2125 4.725 5.425 8.8375C2.3625 9.45 0 12.075 0 15.3125C0 18.9 2.975 21.875 6.5625 21.875H9.625V20.125H6.5625C3.9375 20.125 1.75 17.9375 1.75 15.3125C1.75 12.775 3.675 10.675 6.2125 10.5H7V9.7125C7.4375 6.2125 10.4125 3.5 14 3.5C17.2375 3.5 19.95 5.775 20.7375 8.75H22.575Z" fill="#FDFDFD"/>
</g>
<defs>
<clipPath id="clip0_1189_2361">
<rect width="28" height="28" fill="white"/>
</clipPath>
</defs>
</svg>
