<svg width="24" height="24" viewBox="0 0 24 24" fill="none" xmlns="http://www.w3.org/2000/svg">
<path d="M15.879 3H11C7.229 3 5.343 3 4.172 4.172C3.001 5.344 3 7.229 3 11V13C3 16.771 3 18.657 4.172 19.828C5.344 20.999 7.229 21 11 21H13C16.771 21 18.657 21 19.828 19.828C20.999 18.656 21 16.771 21 13V8.121C21 7.665 21 7.436 20.976 7.217C20.8924 6.46326 20.5962 5.74883 20.122 5.157C19.984 4.984 19.822 4.823 19.5 4.5C19.177 4.177 19.016 4.016 18.844 3.878C18.2519 3.40364 17.5371 3.10745 16.783 3.024C16.563 3 16.335 3 15.879 3Z" stroke="#FDFDFD" stroke-width="1.5" stroke-linecap="round" stroke-linejoin="round"/>
<path d="M17 3.5V4C17 5.886 17 6.828 16.414 7.414C15.828 8 14.886 8 13 8H11C9.114 8 8.172 8 7.586 7.414C7 6.828 7 5.886 7 4V3.5M17 20.5V17C17 15.114 17 14.172 16.414 13.586C15.828 13 14.886 13 13 13H11C9.114 13 8.172 13 7.586 13.586C7 14.172 7 15.114 7 17V20.5" stroke="#FDFDFD" stroke-width="1.5" stroke-linecap="round" stroke-linejoin="round"/>
</svg>
