<svg width="16" height="16" viewBox="0 0 16 16" fill="none" xmlns="http://www.w3.org/2000/svg">
<path d="M4.6665 6L7.99984 8.33333L11.3332 6" stroke="#0088FF" stroke-linecap="round" stroke-linejoin="round"/>
<path d="M1.33325 11.333V4.66634C1.33325 4.31272 1.47373 3.97358 1.72378 3.72353C1.97382 3.47348 2.31296 3.33301 2.66659 3.33301H13.3333C13.6869 3.33301 14.026 3.47348 14.2761 3.72353C14.5261 3.97358 14.6666 4.31272 14.6666 4.66634V11.333C14.6666 11.6866 14.5261 12.0258 14.2761 12.2758C14.026 12.5259 13.6869 12.6663 13.3333 12.6663H2.66659C2.31296 12.6663 1.97382 12.5259 1.72378 12.2758C1.47373 12.0258 1.33325 11.6866 1.33325 11.333Z" stroke="#0088FF"/>
</svg>
